<?xml version="1.0" encoding="utf-8"?>
<!-- Generator: Adobe Illustrator 19.0.1, SVG Export Plug-In . SVG Version: 6.00 Build 0)  -->
<svg version="1.1" id="Layer_1" xmlns="http://www.w3.org/2000/svg" xmlns:xlink="http://www.w3.org/1999/xlink" x="0px" y="0px"
	 viewBox="-720.6 447.7 43.1 80.6" style="enable-background:new -720.6 447.7 43.1 80.6;" xml:space="preserve">
<path d="M-715.9,457.1c-0.5,0-0.9,0.4-0.9,0.9v54.8c0,0.5,0.4,0.9,0.9,0.9h33.8c0.5,0,0.9-0.4,0.9-0.9V458c0-0.5-0.4-0.9-0.9-0.9
	H-715.9z M-683.1,511.9h-31.9v-53h31.9L-683.1,511.9L-683.1,511.9z"/>
<path d="M-699,515.2c-2.6,0-4.7,2.1-4.7,4.7s2.1,4.7,4.7,4.7s4.7-2.1,4.7-4.7S-696.4,515.2-699,515.2z M-699,522.7
	c-1.6,0-2.8-1.3-2.8-2.8s1.3-2.8,2.8-2.8s2.8,1.3,2.8,2.8S-697.4,522.7-699,522.7z"/>
<path d="M-715.9,447.7c-2.6,0-4.7,2.1-4.7,4.7v71.2c0,2.6,2.1,4.7,4.7,4.7h33.8c2.6,0,4.7-2.1,4.7-4.7v-71.2c0-2.6-2.1-4.7-4.7-4.7
	H-715.9z M-679.3,452.4v71.2c0,1.6-1.3,2.8-2.8,2.8h-33.8c-1.6,0-2.8-1.3-2.8-2.8v-71.2c0-1.6,1.3-2.8,2.8-2.8h33.8
	C-680.6,449.6-679.3,450.8-679.3,452.4z"/>
<path d="M-702.8,455.2h7.5c0.5,0,0.9-0.4,0.9-0.9c0-0.5-0.4-0.9-0.9-0.9h-7.5c-0.5,0-0.9,0.4-0.9,0.9
	C-703.7,454.8-703.3,455.2-702.8,455.2z"/>
<ellipse cx="-708.4" cy="490.8" rx="1.9" ry="2.8"/>
<ellipse cx="-689.6" cy="490.8" rx="1.9" ry="2.8"/>
<path d="M-689.6,495.5h-18.8c-0.6,0-1.1,0.3-1.5,0.7c-0.4,0.5-0.5,1.1-0.3,1.6c0.1,0.3,2,7,11.2,7c9.1,0,11.1-6.7,11.2-7
	c0.2-0.6,0-1.2-0.3-1.6C-688.5,495.8-689,495.5-689.6,495.5z"/>
</svg>
